<svg width="24" height="24" viewBox="0 0 24 24" fill="none" xmlns="http://www.w3.org/2000/svg">
<path d="M17.6418 6.35292C16.0118 4.72292 13.7018 3.78292 11.1618 4.04292C7.49184 4.41292 4.47184 7.39292 4.06184 11.0629C3.51184 15.9129 7.26184 20.0029 11.9918 20.0029C15.1818 20.0029 17.9218 18.1329 19.2018 15.4429C19.5218 14.7729 19.0418 14.0029 18.3018 14.0029C17.9318 14.0029 17.5818 14.2029 17.4218 14.5329C16.2918 16.9629 13.5818 18.5029 10.6218 17.8429C8.40184 17.3529 6.61184 15.5429 6.14184 13.3229C5.30184 9.44292 8.25184 6.00292 11.9918 6.00292C13.6518 6.00292 15.1318 6.69292 16.2118 7.78292L14.7018 9.29292C14.0718 9.92292 14.5118 11.0029 15.4018 11.0029H18.9918C19.5418 11.0029 19.9918 10.5529 19.9918 10.0029V6.41292C19.9918 5.52292 18.9118 5.07292 18.2818 5.70292L17.6418 6.35292Z" fill="#121316"/>
</svg>
