<svg width="32" height="32" viewBox="0 0 32 32" fill="none" xmlns="http://www.w3.org/2000/svg">
<path d="M15.9867 2.66797C8.62669 2.66797 2.66669 8.6413 2.66669 16.0013C2.66669 23.3613 8.62669 29.3346 15.9867 29.3346C23.36 29.3346 29.3334 23.3613 29.3334 16.0013C29.3334 8.6413 23.36 2.66797 15.9867 2.66797ZM16 26.668C10.1067 26.668 5.33335 21.8946 5.33335 16.0013C5.33335 10.108 10.1067 5.33464 16 5.33464C21.8934 5.33464 26.6667 10.108 26.6667 16.0013C26.6667 21.8946 21.8934 26.668 16 26.668ZM16.6667 9.33464H14.6667V17.3346L21.6667 21.5346L22.6667 19.8946L16.6667 16.3346V9.33464Z" fill="#1890FF"/>
</svg>
