<svg width="32" height="32" viewBox="0 0 32 32" fill="none" xmlns="http://www.w3.org/2000/svg">
<path d="M5.24497 12.6667H23.9116V15.3333H26.5783V7.33333C26.5783 5.86667 25.3783 4.66667 23.9116 4.66667H22.5783V2H19.9116V4.66667H9.24498V2H6.57831V4.66667H5.24497C3.76497 4.66667 2.59164 5.86667 2.59164 7.33333L2.57831 26C2.57831 27.4667 3.76497 28.6667 5.24497 28.6667H14.5783V26H5.24497V12.6667ZM5.24497 7.33333H23.9116V10H5.24497V7.33333ZM29.0316 21.04L28.085 21.9867L25.2583 19.16L26.205 18.2133C26.725 17.6933 27.565 17.6933 28.085 18.2133L29.0316 19.16C29.5516 19.68 29.5516 20.52 29.0316 21.04ZM24.3116 20.1067L27.1383 22.9333L20.0716 30H17.245V27.1733L24.3116 20.1067Z" fill="#1890FF"/>
</svg>
