<svg width="22" height="22" viewBox="0 0 22 22" fill="none" xmlns="http://www.w3.org/2000/svg">
<path d="M16.25 5.75H14.5C14.5 3.81625 12.9338 2.25 11 2.25C9.06625 2.25 7.5 3.81625 7.5 5.75H5.75C4.7875 5.75 4 6.5375 4 7.5V18C4 18.9625 4.7875 19.75 5.75 19.75H16.25C17.2125 19.75 18 18.9625 18 18V7.5C18 6.5375 17.2125 5.75 16.25 5.75ZM11 4C11.9625 4 12.75 4.7875 12.75 5.75H9.25C9.25 4.7875 10.0375 4 11 4ZM16.25 18H5.75V7.5H7.5V9.25C7.5 9.73125 7.89375 10.125 8.375 10.125C8.85625 10.125 9.25 9.73125 9.25 9.25V7.5H12.75V9.25C12.75 9.73125 13.1438 10.125 13.625 10.125C14.1062 10.125 14.5 9.73125 14.5 9.25V7.5H16.25V18Z" fill="#1890FF"/>
</svg>
