<svg width="22" height="22" viewBox="0 0 22 22" fill="none" xmlns="http://www.w3.org/2000/svg">
<path d="M20.625 7.5C20.625 8.4625 19.8375 9.25 18.875 9.25C18.7175 9.25 18.5688 9.2325 18.4287 9.18875L15.3138 12.295C15.3575 12.435 15.375 12.5925 15.375 12.75C15.375 13.7125 14.5875 14.5 13.625 14.5C12.6625 14.5 11.875 13.7125 11.875 12.75C11.875 12.5925 11.8925 12.435 11.9362 12.295L9.705 10.0638C9.565 10.1075 9.4075 10.125 9.25 10.125C9.0925 10.125 8.935 10.1075 8.795 10.0638L4.81375 14.0538C4.8575 14.1937 4.875 14.3425 4.875 14.5C4.875 15.4625 4.0875 16.25 3.125 16.25C2.1625 16.25 1.375 15.4625 1.375 14.5C1.375 13.5375 2.1625 12.75 3.125 12.75C3.2825 12.75 3.43125 12.7675 3.57125 12.8112L7.56125 8.83C7.5175 8.69 7.5 8.5325 7.5 8.375C7.5 7.4125 8.2875 6.625 9.25 6.625C10.2125 6.625 11 7.4125 11 8.375C11 8.5325 10.9825 8.69 10.9388 8.83L13.17 11.0612C13.31 11.0175 13.4675 11 13.625 11C13.7825 11 13.94 11.0175 14.08 11.0612L17.1862 7.94625C17.1425 7.80625 17.125 7.6575 17.125 7.5C17.125 6.5375 17.9125 5.75 18.875 5.75C19.8375 5.75 20.625 6.5375 20.625 7.5Z" fill="#1890FF"/>
</svg>
