<svg width="22" height="22" viewBox="0 0 22 22" fill="none" xmlns="http://www.w3.org/2000/svg">
<path d="M11 2.25C6.17 2.25 2.25 6.17 2.25 11C2.25 15.83 6.17 19.75 11 19.75C15.83 19.75 19.75 15.83 19.75 11C19.75 6.17 15.83 2.25 11 2.25ZM6.93125 16.6875C8.0775 15.865 9.4775 15.375 11 15.375C12.5225 15.375 13.9225 15.865 15.0687 16.6875C13.9225 17.51 12.5225 18 11 18C9.4775 18 8.0775 17.51 6.93125 16.6875ZM16.3725 15.48C14.8937 14.325 13.03 13.625 11 13.625C8.97 13.625 7.10625 14.325 5.6275 15.48C4.6125 14.2638 4 12.7063 4 11C4 7.1325 7.1325 4 11 4C14.8675 4 18 7.1325 18 11C18 12.7063 17.3875 14.2638 16.3725 15.48Z" fill="#1890FF"/>
<path d="M11 5.75C9.31125 5.75 7.9375 7.12375 7.9375 8.8125C7.9375 10.5013 9.31125 11.875 11 11.875C12.6888 11.875 14.0625 10.5013 14.0625 8.8125C14.0625 7.12375 12.6888 5.75 11 5.75ZM11 10.125C10.2738 10.125 9.6875 9.53875 9.6875 8.8125C9.6875 8.08625 10.2738 7.5 11 7.5C11.7262 7.5 12.3125 8.08625 12.3125 8.8125C12.3125 9.53875 11.7262 10.125 11 10.125Z" fill="#1890FF"/>
</svg>
