<svg width="22" height="22" viewBox="0 0 22 22" fill="none" xmlns="http://www.w3.org/2000/svg">
<path d="M19.1156 15.2613L20.1131 14.3863L19.2381 12.8725L17.9693 13.3012C17.6893 13.065 17.3743 12.8813 17.0243 12.75L16.7618 11.4375H15.0118L14.7493 12.7413C14.3993 12.8725 14.0843 13.0563 13.8043 13.2925L12.5356 12.8638L11.6606 14.3775L12.6581 15.2525C12.5881 15.69 12.5881 15.9175 12.6581 16.355L11.6606 17.23L12.5356 18.7437L13.8043 18.315C14.0843 18.5513 14.3993 18.735 14.7493 18.8662L15.0118 20.1875H16.7618L17.0243 18.8838C17.3743 18.7525 17.6893 18.5687 17.9693 18.3325L19.2381 18.7613L20.1131 17.2475L19.1156 16.3725C19.1856 15.9262 19.1856 15.6988 19.1156 15.2613ZM15.8868 17.5625C14.9243 17.5625 14.1368 16.775 14.1368 15.8125C14.1368 14.85 14.9243 14.0625 15.8868 14.0625C16.8493 14.0625 17.6368 14.85 17.6368 15.8125C17.6368 16.775 16.8493 17.5625 15.8868 17.5625ZM8.88684 5.3125V10.0462L10.9518 12.1112L11.8618 10.545L10.6368 9.32875V5.3125H8.88684ZM17.6368 9.6875C17.6368 5.33875 14.1106 1.8125 9.76184 1.8125C7.28559 1.8125 5.08059 2.9675 3.63684 4.7525V2.6875H1.88684V7.9375H7.13684V6.1875H4.73934C5.85059 4.60375 7.68809 3.5625 9.76184 3.5625C13.1393 3.5625 15.8868 6.31 15.8868 9.6875H17.6368ZM8.76434 15.7337C6.14809 15.305 4.08309 13.1962 3.70684 10.5625H1.93934C2.37684 14.5 5.71059 17.5625 9.76184 17.5625C9.77934 17.5625 9.80559 17.5625 9.82309 17.5625L8.76434 15.7337Z" fill="#1890FF"/>
</svg>
