<svg width="22" height="22" viewBox="0 0 22 22" fill="none" xmlns="http://www.w3.org/2000/svg">
<path d="M17.125 3.125H4.875C3.9125 3.125 3.125 3.9125 3.125 4.875V17.125C3.125 18.0875 3.9125 18.875 4.875 18.875H17.125C18.0875 18.875 18.875 18.0875 18.875 17.125V4.875C18.875 3.9125 18.0875 3.125 17.125 3.125ZM17.125 17.125H15.6112L17.125 15.6112V17.125ZM17.125 14.5H16.3812L13.7562 17.125H12.3387L14.9638 14.5H13.1087L10.4837 17.125H9.075L11.7 14.5H9.845L7.22 17.125H5.61L8.235 14.5H6.38L4.875 16.005V4.875H17.125V14.5Z" fill="#1890FF"/>
<path d="M9.83625 10.125L11.5863 11.875L16.0312 7.42125L14.7975 6.1875L11.5863 9.39875L9.83625 7.64875L5.96875 11.5163L7.2025 12.75L9.83625 10.125Z" fill="#1890FF"/>
</svg>
