<svg width="15" height="16" viewBox="0 0 15 16" fill="none" xmlns="http://www.w3.org/2000/svg">
<path d="M6.5 7C6.5 6.72386 6.27614 6.5 6 6.5C5.72386 6.5 5.5 6.72386 5.5 7V11C5.5 11.2761 5.72386 11.5 6 11.5C6.27614 11.5 6.5 11.2761 6.5 11V7Z" fill="white"/>
<path d="M9.5 7C9.5 6.72386 9.27614 6.5 9 6.5C8.72386 6.5 8.5 6.72386 8.5 7V11C8.5 11.2761 8.72386 11.5 9 11.5C9.27614 11.5 9.5 11.2761 9.5 11V7Z" fill="white"/>
<path fill-rule="evenodd" clip-rule="evenodd" d="M6 0.5C5.44772 0.5 5 0.947715 5 1.5V2.5H1C0.723858 2.5 0.5 2.72386 0.5 3C0.5 3.27614 0.723858 3.5 1 3.5H1.5V8.5C1.5 10.0732 1.87841 12.1866 2.16798 13.5797C2.40508 14.7202 3.41734 15.5 4.56155 15.5H10.4384C11.5827 15.5 12.5949 14.7202 12.832 13.5797C13.1216 12.1866 13.5 10.0732 13.5 8.5V3.5H14C14.2761 3.5 14.5 3.27614 14.5 3C14.5 2.72386 14.2761 2.5 14 2.5H10V1.5C10 0.947715 9.55229 0.5 9 0.5H6ZM9 2.5H6V1.5H9V2.5ZM2.5 3.5H12.5V8.5C12.5 9.95997 12.1424 11.9836 11.8529 13.3761C11.7165 14.0326 11.1297 14.5 10.4384 14.5H4.56155C3.8703 14.5 3.28352 14.0326 3.14705 13.3761C2.85759 11.9836 2.5 9.95997 2.5 8.5V3.5Z" fill="white"/>
</svg>
